<svg width="109" height="103" viewBox="0 0 109 103" fill="none" xmlns="http://www.w3.org/2000/svg">
<path fill-rule="evenodd" clip-rule="evenodd" d="M29.5345 2.78031C39.263 -3.4722 51.8519 5.19854 62.8459 8.79427C72.1077 11.8235 80.9999 15.3284 88.1501 21.9513C95.5907 28.8431 101.181 37.2761 104.086 46.9933C107.373 57.9827 110.336 70.05 105.665 80.5225C100.889 91.2274 90.8037 100.114 79.3285 102.496C68.6079 104.721 59.7524 94.0611 48.9454 92.2944C38.0752 90.5174 26.1234 97.9869 16.7127 92.2597C6.79017 86.2208 -0.618267 74.1744 0.124495 62.5823C0.851641 51.2339 15.2915 46.3354 20.3091 36.1328C25.5268 25.5231 19.59 9.17171 29.5345 2.78031Z" fill="#F5DDDE"/>
</svg>
